<svg version="1" xmlns="http://www.w3.org/2000/svg" width="1365.333" height="1365.333" viewBox="0 0 1024.000000 1024.000000"><path d="M482.9.4c-.2.2-4.9.6-10.4 1-5.5.3-11.1.8-12.5 1-1.4.3-5.2.7-8.5 1-3.3.3-6.9.8-8 1-1.1.2-4.2.7-7 1-4.4.6-8.5 1.3-19 3.2-8.6 1.5-23.1 4.7-31.5 7-5.2 1.3-10.2 2.6-11 2.8-32.4 7.9-85.8 30.3-119.2 50.1-.9.5-3.6 2.1-5.9 3.3-10.6 5.8-42.6 27.9-54.5 37.5-44.5 36.1-79.7 74-107.8 116.2C72 248.9 66.4 258.3 55.8 279c-8.3 16.3-24.1 52.4-25.3 58-.2.8-1.3 4.2-2.6 7.5-1.8 4.9-6.8 20.4-8.4 26.5-2.3 8.3-6.5 24.9-6.9 26.9-.3 1.4-1.2 6-2.1 10.1-1.9 8.5-4.4 22.8-5.1 28-.2 1.9-.6 5-.9 6.7-.3 1.8-.7 5.4-1 8-.3 2.7-.7 6.4-1 8.3-2.7 23.1-2.8 82-.1 105 .3 1.9.7 6.2 1.1 9.5.3 3.3.8 6.9 1 8 .3 1.1.7 3.8 1 6 .9 7 3 18.3 6.1 34.4.7 3.6 8.3 33.1 9.4 36.6 17 53.7 36.7 95.6 65.1 138.1 5.4 8.1 22.4 31.2 27.5 37.4 29.6 35.6 58.1 63 92.7 88.9 42.9 32 89.8 56.7 141.4 74.2 12.2 4.2 32.8 10.3 38.2 11.4.9.2 5.4 1.2 10.1 2.4 4.7 1.1 9.6 2.3 11 2.5 1.4.3 5 1 8 1.6 3 .6 6.9 1.3 8.5 1.6 13.9 2.3 18.2 2.9 28 4 2.8.3 6.4.7 8 .9 18.5 2.7 86.8 2.7 106 0 1.7-.3 5.3-.7 8-1 96-11.2 190-51.6 265-114 15.8-13.1 19.3-16.4 35-32 31.2-31.1 51.9-57.3 77.2-98 1.2-2 7.9-13.6 12-21 20.6-37 41-92 49.8-134.4.2-.9 1.1-5.2 2-9.6.9-4.4 1.9-9.4 2.1-11 .2-1.7.6-4.8 1-7s.8-5 1-6.2c.1-1.2.5-3.4.8-5 .3-1.5.8-5.7 1.2-9.3.3-3.6.8-7.9 1-9.5 2.6-21 2.6-87.7 0-103.5-.3-1.4-.7-5.2-1-8.5-.4-3.3-.8-7.1-1-8.5-.2-1.4-.7-4.8-1.1-7.5-3.8-28.1-14.8-71-25.5-99.6-2.2-5.9-4-10.9-4-11.2 0-.4-1.1-3-2.4-5.9-1.3-2.9-4.9-11-7.9-17.9-8.5-18.9-21.5-43.4-29.9-56.2-2.1-3.2-3.8-6.1-3.8-6.4 0-1.1-18.5-27.5-26.5-37.8-21.4-27.6-49-56.9-72.1-76.5-21.5-18.4-39-31.1-67.9-49.5-5-3.2-18.6-10.8-32-17.9-28.6-15.3-84.2-36.3-108.3-41.1-.9-.1-4.4-1-7.7-1.8-3.3-.9-7.1-1.8-8.5-2.1-1.4-.2-5.9-1.1-10-2-10.4-2.1-24.3-4.4-31.5-5.1-3.3-.4-6.7-.8-7.5-1-.8-.2-5.1-.7-9.5-1.1-4.4-.4-9.3-.9-11-1.1-3.6-.5-69.1-1.4-69.6-.9zm65.6 49c3.3.4 7.8.9 10 1.1 7.3.9 14 1.6 17.7 2 2.1.2 5 .6 6.5.9 4.1.8 10 1.8 18.3 3.1 8.5 1.3 42.5 10.3 56 14.8 41.7 13.9 76.7 31.1 115 56.6l11.4 7.6-135.7.3c-74.6.1-196.8.1-271.4 0l-135.8-.3 14.5-9.6c8-5.3 16.1-10.6 18-11.7 1.9-1.1 6.7-3.7 10.5-5.9 34.2-19.6 84.3-39.5 117.5-46.9 1.1-.2 2.9-.6 4-.9 4.2-1 5.7-1.4 13.5-2.9 18.3-3.6 21.3-4.1 30-5.2 1.7-.2 6.8-.8 11.5-1.3 4.7-.6 13-1.4 18.5-1.7 5.5-.4 10.1-.7 10.3-.9.6-.5 54 .3 59.7.9zM261.4 186.2c-1 1.2-2.6 2.9-3.4 3.8-.8.9-3.3 3.7-5.5 6.1-9.7 10.7-33.7 42.4-40 52.8-.5.9-2.7 4.1-4.7 7.1-3.1 4.7-14.5 23.5-21.5 35.7l-2.2 3.8-.1-55.8V184H263.3l-1.9 2.2zm536.4-1.3c-.1.5-5.8 6.7-12.4 13.7-12.5 13.3-16.3 17.2-27.3 29-3.5 3.8-9.8 10.5-13.9 14.9-4.2 4.4-10.7 11.4-14.6 15.5-3.9 4.2-13 13.9-20.2 21.5-7.2 7.7-15.8 16.9-19.1 20.5-3.4 3.6-7.8 8.3-10 10.6-8.6 9.1-28.3 30.1-31.3 33.4-5.2 5.6-28 29.8-33.5 35.6-2.7 2.8-12.6 13.2-22 22.9-31 32.5-64.9 65.8-76.5 75.1-1.9 1.6-3.7 3.1-4 3.5-.8.9-13.3 10-15.4 11.1-1.7.9-1.8.7-1.3-2.3.4-1.9.9-4.8 1.2-6.4.2-1.7.7-4.1 1-5.4 1.9-9.8 2.7-29 1.3-35.6-1.7-8.3-6.8-17.6-11.9-22-13.8-11.7-32-12.5-52.1-2.4-14.7 7.4-43.6 29.8-61.8 47.9-2 1.9-4.4 4.2-5.4 5-1.8 1.4-1.8 1.3-1.2-.7.4-1.3.9-3.5 1.2-5 .3-1.6.7-3.6 1-4.5.3-.9.7-2.5.9-3.5.2-1 1.5-6.5 2.9-12.3 1.4-5.8 2.7-11.6 3-13 .2-1.4 1.6-7.7 3-14s2.7-12.9 3-14.5c.3-1.7.8-4.1 1.1-5.5 2.1-10.5 2.5-12.8 2.9-15 .2-1.4.9-5.2 1.5-8.5s1.3-7.4 1.6-9c.2-1.7.7-3.9.9-5 .5-2.6 1.5-9 2.1-14 .3-2.2.8-5.1 1-6.5 1-5.6 1.5-9.1 3-21.5 4.1-33.7 4.8-44.7 4.9-70.5.1-27.7-1.9-49.3-5.4-58.5-.5-1.4-1-3.3-1-4.1 0-1.2 27.1-1.4 201.6-1.4 117.9 0 201.4.4 201.2.9zm-455.3 1.9c3 2.1 7.5 13.9 9 23.2 1.9 13 2.6 47.8 1.1 65.5-1.2 14.9-2.2 25.3-3.1 32-.3 1.6-.7 5.2-1 7.9-.3 2.7-.7 5.9-1 7-.2 1.2-.7 4.3-1 7.1-1.2 9.7-5.4 35.1-8.6 51-1 5.5-2.1 11.1-2.4 12.5-.3 1.4-.7 3.6-1 5-.3 1.4-.7 3.4-.9 4.5-.3 1.1-1.4 6.4-2.6 11.9-1.2 5.4-2.3 10.7-2.5 11.8-.2 1.1-.6 2.7-.9 3.6-.3.9-.7 2.8-1 4.2-.2 1.4-.9 4.5-1.6 7-.7 2.5-1.4 5.2-1.5 6-.6 2.6-6.3 25.3-7.9 31-2.4 8.9-7.2 27.4-11.1 42.5-4.3 17.2-4.5 17.6-5.3 17.1-.4-.2-2.9-.7-5.7-1-19.7-2.6-51.4-15.3-67-26.8-9.5-7-20.7-18.1-26.2-25.8-14.5-20.9-17.6-40.2-11.2-71 12.4-60.2 63-149.2 113.4-199.5 13.3-13.3 21.5-19.9 30.8-24.7 5.4-2.8 7.5-3.3 9.2-2zM840 525.5V840H546.5c-161.4 0-293.5-.2-293.5-.4s3.3-6.8 7.3-14.7c14.2-27.8 25.2-56.2 39.8-102.4 5.5-17.3 14.5-47.6 15.4-51.6.2-.9 1.2-4.7 2.4-8.5 1.1-3.8 3.2-11.4 4.6-16.9 1.4-5.5 3.5-13.2 4.5-17 2.1-8.1 9.9-38.7 10.6-41.6 3.4-15.5 3.9-16.6 11.5-25.1 23-26.2 55.8-59.7 73.4-74.9 11-9.6 27.2-21.9 28.7-21.9.5 0 .7.8.4 1.7-.3 1-.7 3.4-1 5.3-.3 1.9-1 6-1.6 9-5.5 28.8-1.8 44.5 12.9 54.9 13.6 9.5 30.3 11 47.1 4.4 14.9-6 34.3-20.4 59.4-44.3 17.2-16.3 64.1-64 84.1-85.5 5.8-6.3 29.2-31.1 37.6-40 4.2-4.4 8.7-9.2 10-10.6 1.3-1.5 7.6-8.2 13.9-14.9 6.3-6.7 13.2-14.1 15.4-16.4 2.1-2.2 9-9.7 15.5-16.6 10.7-11.5 15-16 33.3-35.5 3.7-3.9 7.9-8.4 9.4-10 2.4-2.6 12.3-13.2 38-40.5 3.9-4.1 8.6-9.2 10.5-11.3 1.9-2 3.5-3.7 3.6-3.7.2 0 .3 141.5.3 314.5zM135.8 647.7l-.3 135.8-3.2-4.8c-1.8-2.6-3.3-5.2-3.3-5.7 0-.4-.4-1-.8-1.2-.5-.2-2.9-3.5-5.4-7.3-21.7-33.7-38.7-69.1-51.5-107.5-2.5-7.4-4.7-14.2-4.9-15-.2-.8-2.1-8.5-4.2-17-4.8-18.8-9.3-43-10.7-57.6-.4-3.2-.8-7-1-8.4-2.4-13.9-2.6-72.1-.4-90 .4-3.6 1-9 1.4-12 1.4-13.6 1.2-11.8 3.6-25.2.5-3.2 1.2-7 1.5-8.5 2.6-14.5 11-46.1 15.8-59.8 3.9-11.1 8.2-22.7 9.9-26.5 10.7-24.7 14.2-31.9 22.2-46.5 6.3-11.6 6.3-11.6 10.9-19.2 2.6-4.3 16.5-25.4 19.1-28.9 1.1-1.6 1.7 179.2 1.3 405.3zm759.4-397.2c7.3 10.7 18.4 28.9 24.3 40 2.7 4.9 5.8 10.8 7 13 3.1 5.7 13.5 29.1 17.9 40.3 7.1 18.1 18.1 53.9 20.3 66.1.2 1.4.9 4.6 1.4 7.1.6 2.5 1.3 5.5 1.5 6.8 1.4 7.8 2.4 14.2 2.9 17.7.3 2.2.8 5.5 1.1 7.2 2.6 16.4 3.9 37.1 3.8 64.3 0 20.4-1 43.4-1.9 45-.1.3-.6 4.3-.9 8.9-.4 4.6-1.1 10.4-1.6 13-.4 2.5-1.1 6.6-1.5 9.1-3.4 23.8-13.3 60.1-24.3 89-7.6 20-21.3 48.9-30 63.5-10.5 17.7-23.2 37.3-26.4 41-.4.5-.8-121.2-.8-270.5s.4-271 .8-270.5c.5.6 3.3 4.6 6.4 9zM191 543.1c17.9 14.8 47.8 29.3 77.8 37.5.9.3-.9 3.3-5 8.6-3.5 4.6-6.8 8.8-7.4 9.5-1 1.1-12.5 16.6-28.1 37.8-6.7 9.2-32.4 47.8-40 60.1l-4.3 6.9v-82.8c0-66 .3-82.7 1.3-82.1.6.4 3.2 2.5 5.7 4.5zm71.9 137c-2.3 7.3-4.3 14.1-4.4 14.9-.6 2.7-9.2 29.1-13.8 42.5-15.3 44.2-31 77-44.7 93.3-5 6-9.9 9.5-11.6 8.4-11.6-7.9.8-47.8 31.4-101.2 12.5-21.8 45.8-72.7 46.9-71.6.1.1-1.6 6.3-3.8 13.7zM783 888.4c0 .6-25 17-36 23.6-12.3 7.4-37.3 20-51.5 26-5.5 2.4-11.8 5-14 6-12.8 5.6-57.6 19.1-71.7 21.5-1.8.3-5.3 1.1-7.8 1.6-2.5.6-5.7 1.2-7.2 1.4-1.5.2-5.3.8-8.5 1.4-8.1 1.4-12 1.9-18.9 2.6-3.2.4-7 .8-8.4 1-6.8 1.2-26.9 2-48.5 1.9-30.2 0-41.2-.8-69.5-5-5.8-.8-12.3-1.9-14.5-2.4-2.2-.5-5.6-1.2-7.5-1.5-1.9-.3-8.4-1.8-14.5-3.2-6-1.5-11.2-2.8-11.5-2.8-29-6.9-74.5-25.3-105.5-42.5-13.8-7.6-46.5-28.4-46.5-29.6 0-.2 122-.4 271-.4 149.1 0 271 .2 271 .4z"/></svg>