<svg version="1" xmlns="http://www.w3.org/2000/svg" width="933.333" height="933.333" viewBox="0 0 700.000000 700.000000"><path d="M0 7.7v7.8l78.2 78.2 78.2 78.2-4 3.6c-13.4 12.3-33.3 25.4-52.9 34.9-30.1 14.7-64.9 23.5-94.3 24l-5.3.1.3 11 .3 11 4.5-.1c9.8-.1 27.3-2.2 41.3-4.9 19.6-3.8 41.7-11.2 61.9-20.9 5.1-2.4 9.4-4.3 9.6-4.1.2.2-1.3 3.6-3.4 7.6-6.7 13.4-16.8 40.7-18.8 50.9-.3 1.4-.7 3.4-1 4.5-5 21.3-7 39-6.9 61.5 0 11.8 1 28.7 1.8 32 .2.8.7 3.7 1 6.5 2.9 23.2 15 60.7 26 80.2 1.3 2.4 2.2 4.3 2 4.3-.2 0-5-2.2-10.7-4.9-32.7-15.5-63.4-23.2-101.5-25.6l-6.3-.4v11c0 6 .3 10.9.8 11 .4 0 2.7.2 5.2.3 55.9 3.4 105.6 23.4 146.5 59.1l4 3.5-78.2 78.2L0 684.5V700h15.5l78.2-78.2 78.2-78.2 3.6 4c18.9 20.6 36.7 51.9 47.4 82.9 2.2 6.4 7.7 28.7 8.5 34.5 2 14.1 3.1 24.3 3.5 33.7.1 1 3 1.3 10.9 1.3h10.8l-.2-5.7c-.2-8.3-1.3-19.9-2.4-26.3-.5-3-1.2-7.1-1.5-9-3.7-22.4-15.1-56.2-24.9-73.5l-2.3-4.2 11.2 5.3C278 606.3 323 614.9 369 611.7c8.7-.5 21.3-2.1 27.2-3.3 1.3-.2 3.7-.7 5.3-1 19-3.4 50.7-14.4 67-23.2 3-1.7 5.5-2.8 5.5-2.6 0 .3-1.2 2.8-2.6 5.7-12.8 25.1-20.7 50.7-25.9 83.7-.7 4.2-1.7 16.1-2 22.7l-.2 6.3h10.8c8 0 10.9-.3 11-1.3.1-.6.2-3.5.4-6.2.5-8.6 2-22.1 3-26.5.3-1.4 1-5.2 1.6-8.5 2.3-13.3 8.4-32.7 15.1-48 9.8-22.3 22.6-42.5 39.7-62.5l3-3.5 78.3 78.3 78.3 78.2H700v-15.6l-78.2-78.2-78.2-78.3 3.4-3c31.6-27.6 70.5-46.9 112-55.4 1.4-.2 6.7-1.1 13-2 4.5-.7 13.4-1.5 20.5-2l7-.4.3-11 .3-11-6.8.4c-10.3.7-19.5 1.5-22.3 2-1.4.3-4.1.7-6 1-24.7 3.9-46 10.3-69.2 21-7.6 3.5-13.8 6.2-13.8 6.1 0-.2 2.3-5.1 5.1-11.1 17.1-36.3 25.5-74 25.2-114 0-10.4-1.1-27.7-1.9-32-.2-1.1-.7-4-1-6.5-2.9-22.4-12.9-54.2-24-76.2-1.9-3.8-3.3-7.2-3.1-7.4.2-.2 2.4.7 4.9 2.1 17.3 9.7 55.6 22 77.3 25 2.3.3 5.2.7 6.5 1 3.3.6 17.3 1.8 23.5 1.9l5 .1v-21.8l-5-.2c-7.4-.3-22.9-1.6-23.6-2-.3-.2-2.8-.7-5.5-1-2.7-.4-5.8-.9-6.9-1.3-2.1-.6-2.7-.7-6.5-1.5-33.9-6.7-77.8-29.1-104.4-53.3l-4-3.5 78.2-78.2L700 15.5V0h-15.5l-78.2 78.2-78.2 78.2-3.6-3.9c-5.9-6.7-17.4-22.2-23.1-31.3-5.8-9.1-17.1-31.5-19.9-39.2-5.9-16.5-11.7-37.5-13.1-48-.4-3-.8-5.7-.9-6-.1-.3-.5-4.3-1-9-.7-7.3-1-11.6-1.4-17.8-.1-.9-3-1.2-11-1.2h-10.9l.3 6.2c2 37.8 11.2 73.2 27.5 105.5l3.6 7.1-8.7-4.3c-17.9-9-43-17.7-61.9-21.4-9.2-1.9-9.9-2-17.8-3.1-10.5-1.5-24.6-2.4-37.2-2.4-10.8.1-30.9 1.2-31.9 1.8-.3.2-3.1.7-6.1 1.1-3 .3-6.2.8-7 1-.8.2-3.1.7-5 1-7.1 1.2-20.8 4.8-32.4 8.6-12.7 4.2-12.9 4.3-30.1 12.4l-11.1 5.2 3.3-6.2c5.2-9.7 13.8-31.9 17.6-45.6 5.8-20.3 9.4-42.1 10.1-60.7l.2-6.2h-10.8c-5.9 0-10.8.3-10.9.7-.1 1.4-.8 8.7-1.4 16.3-1.7 20.5-7.7 45.8-15.5 65.5-9.8 24.5-25.5 50.4-42.4 70l-3.5 4-78.2-78.3L15.6 0H0v7.7zm371.5 102.7c11.5 1.1 15.5 1.7 26 3.7 36.9 7.2 75.6 25.6 105.5 50.1 4.9 4 8.9 7.5 8.9 7.8.1.3-36.3 36.9-80.9 81.5l-81 81-81.1-81.2-81.1-81.2 3.7-3.3c17.6-15.5 44.4-32.2 65.5-40.8 3-1.2 6.4-2.6 7.5-3.1 14.6-6.3 44.3-13 64.5-14.5 4.7-.4 8.6-.7 8.7-.8.6-.5 27.3.2 33.8.8zM253.5 431l-81 81.1-4.4-4.8c-14.6-16-29.9-40.5-39.5-63.5-7-16.7-13.7-39.1-15.1-50.5-.2-1.8-.9-5.7-1.4-8.8-2.3-12.2-3.1-38.7-1.8-54.7.8-9.5 1.5-13.7 4.3-29.5 1-5.4 5.6-21.5 9-31.6 8.6-25 27.6-57.6 44.4-76l4.4-4.8 81 81 81.1 81.1-81 81zm280-236.8c24.5 29.9 40.2 60.4 49.4 96.1 1.6 6.1 3.2 13.2 3.5 15.7.3 2.5.8 5.7 1.1 7.2.3 1.6.7 4 1 5.5 2.2 12.8 2.3 48.3.1 61.3-.2 1.4-.7 4.6-1 7.1-3.2 23.2-13.1 53-25 75.3-8.5 16.1-20.5 33.6-29.8 43.9l-5.3 5.7-81-81-81-81 81-81c44.6-44.6 81.2-81 81.5-80.9.3 0 2.8 2.8 5.5 6.1zM431.3 446.8l80.8 80.8-3.8 3.5c-7.9 6.9-10 8.6-18.3 14.5-19.6 14-41.1 24.9-64.3 32.6-12.7 4.1-17.7 5.5-30.9 8.3-.9.2-3.8.7-6.5 1.1-2.6.3-5.7.8-6.8 1-11.2 2.2-52 2.2-63 0-1.1-.2-4.2-.7-7-1-7.1-1-28.7-6.3-37.5-9.2-28.7-9.6-57.9-26.1-79.8-45.2l-6.4-5.5 80.9-80.9c44.4-44.4 81-80.8 81.3-80.8.3 0 36.9 36.4 81.3 80.8z"/></svg>