<svg baseProfile="tiny" xmlns="http://www.w3.org/2000/svg" width="48" height="48"><g fill="#D8B28D"><path d="M45.75 2.25v43.5H2.25V2.25h43.5M48 0H0v48h48V0z"/><path d="M24 2.25c11.993 0 21.75 9.757 21.75 21.75S35.993 45.75 24 45.75 2.25 35.993 2.25 24 12.007 2.25 24 2.25M24 0C10.745 0 0 10.746 0 24s10.745 24 24 24 24-10.746 24-24S37.255 0 24 0z"/><g fill-rule="evenodd"><path d="M35.973 39H12V24h2v12.53c0 .015.253.017.258.021.003.003.123.008.128.008l19.227.005.387-.005v-12.56s1.484.009 2 0v14.158c0 .23-.009.46-.015.689 0 .05-.007.107-.012.154zM37.25 17.25l-2.564 1.748c-2.728-4-5.447-7.989-8.18-11.994.853-.584 1.701-1.162 2.563-1.748L37.25 17.25zM20.1 14.717l1.577-2.671c4.17 2.459 8.331 4.914 12.507 7.375l-1.576 2.672c-4.174-2.462-8.338-4.915-12.508-7.376z"/><path d="M32.354 22.968l-.806 2.996-14.022-3.769.806-2.996 14.022 3.769zM16 34v-3h15v3H16zM31.397 27.035c-.092 1.015-.187 2.032-.282 3.067-4.82-.443-9.626-.887-14.43-1.328-.027-.125.179-2.54.256-3.062a.038.038 0 0 1 .011-.011c.003-.003.008-.007.011-.007.025-.002.048-.004.072-.002l14.309 1.318c.013.003.027.014.053.025z"/></g></g></svg>