<svg baseProfile="tiny" xmlns="http://www.w3.org/2000/svg" width="64" height="64"><g fill="#EFE0D1"><path d="M32-96.693L63.113-65.58 32-34.469.887-65.58 32-96.693m0-2.828L-1.941-65.58 32-31.641 65.941-65.58 32-99.521z"/><path d="M64.527-64.167L95.64-33.055 64.527-1.941 33.414-33.055l31.113-31.112m0-2.828l-33.941 33.94L64.527.887l33.94-33.941-33.94-33.941z"/><path d="M97.054-31.64L128.167-.527 97.054 30.586 65.94-.527 97.054-31.64m0-2.829L63.112-.527l33.941 33.941L130.994-.527l-33.94-33.942z"/><path d="M129.581.887L160.693 32l-31.112 31.113L98.468 32 129.581.887m0-2.828L95.64 32l33.941 33.941L163.521 32l-33.94-33.941zM-.527-64.167l31.113 31.112L-.527-1.941l-31.112-31.113L-.527-64.167m0-2.828l-33.94 33.94L-.527.886l33.941-33.941-33.941-33.94z"/><path d="M32-31.64L63.113-.527 32 30.586.887-.527 32-31.64m0-2.829L-1.941-.527 32 33.414 65.941-.527 32-34.469z"/><path d="M64.527.887L95.64 32 64.527 63.113 33.414 32 64.527.887m0-2.828L30.586 32l33.941 33.941L98.468 32 64.527-1.941z"/><path d="M97.054 33.414l31.113 31.113-31.113 31.114L65.94 64.527l31.114-31.113m0-2.828L63.112 64.527l33.941 33.941 33.941-33.941-33.94-33.941z"/><g><path d="M-33.054-31.64L-1.941-.527l-31.113 31.113L-64.167-.527l31.113-31.113m0-2.829L-66.995-.527l33.941 33.941L.888-.527l-33.942-33.942z"/><path d="M-.527.887L30.586 32-.527 63.113-31.639 32-.527.887m0-2.828L-34.468 32l33.94 33.941L33.414 32-.527-1.941z"/><g><path d="M32 33.414l31.113 31.113L32 95.641.887 64.527 32 33.414m0-2.828L-1.941 64.527 32 98.469l33.941-33.941L32 30.586z"/><path d="M64.527 65.941L95.64 97.053l-31.112 31.113-31.114-31.113 31.113-31.112m0-2.828l-33.941 33.94 33.941 33.941 33.94-33.941-33.94-33.94z"/></g><g><path d="M-65.58.887L-34.468 32-65.58 63.113-96.693 32-65.58.887m0-2.828L-99.521 32l33.941 33.941L-31.64 32-65.58-1.941z"/><path d="M-33.054 33.414l31.113 31.113-31.113 31.113-31.113-31.113 31.113-31.113m0-2.828l-33.941 33.941 33.941 33.941L.888 64.527l-33.942-33.941z"/><g><path d="M-.527 65.941l31.113 31.111-31.113 31.113-31.112-31.113L-.527 65.941m0-2.828l-33.94 33.939 33.94 33.941 33.941-33.941L-.527 63.113z"/><path d="M32 98.467l31.113 31.113L32 160.693.887 129.58 32 98.467m0-2.828L-1.941 129.58 32 163.521l33.941-33.941L32 95.639z"/></g></g></g><g><path d="M32-55.054a21.862 21.862 0 0 1 15.557 6.443c8.577 8.577 8.577 22.534 0 31.112A21.86 21.86 0 0 1 32-11.055a21.86 21.86 0 0 1-15.557-6.444A21.854 21.854 0 0 1 10-33.054a21.858 21.858 0 0 1 6.443-15.557A21.864 21.864 0 0 1 32-55.054m0-2a23.928 23.928 0 0 0-16.971 7.029c-9.372 9.372-9.372 24.569 0 33.94A23.925 23.925 0 0 0 32-9.055a23.927 23.927 0 0 0 16.971-7.03c9.372-9.373 9.372-24.568 0-33.94A23.929 23.929 0 0 0 32-57.054z"/><path d="M64.527-24.527v2c5.876 0 11.4 2.289 15.556 6.443 8.578 8.578 8.578 22.535 0 31.113a21.857 21.857 0 0 1-15.556 6.444c-5.877 0-11.401-2.289-15.557-6.444s-6.443-9.68-6.443-15.556a21.86 21.86 0 0 1 6.443-15.558 21.852 21.852 0 0 1 15.556-6.443l.001-1.999m-.001 0a23.924 23.924 0 0 0-16.97 7.029c-9.373 9.373-9.372 24.57 0 33.941a23.923 23.923 0 0 0 16.971 7.03 23.927 23.927 0 0 0 16.97-7.03c9.373-9.373 9.373-24.568 0-33.941a23.925 23.925 0 0 0-16.971-7.029z"/></g><path d="M97.055 8v2c5.876 0 11.4 2.288 15.556 6.443 8.578 8.578 8.578 22.535 0 31.113C108.456 51.711 102.93 54 97.054 54s-11.401-2.289-15.557-6.444c-8.577-8.578-8.577-22.535 0-31.113A21.864 21.864 0 0 1 97.053 10l.002-2m-.002 0a23.934 23.934 0 0 0-16.97 7.029c-9.372 9.373-9.372 24.568 0 33.941C84.77 53.657 90.912 56 97.054 56s12.284-2.344 16.971-7.03c9.373-9.373 9.373-24.568 0-33.941A23.929 23.929 0 0 0 97.053 8z"/><g><path d="M-.526-24.527v2c5.875 0 11.4 2.289 15.556 6.443 8.578 8.578 8.578 22.535 0 31.113-4.155 4.155-9.68 6.444-15.556 6.444s-11.401-2.289-15.556-6.444A21.856 21.856 0 0 1-22.525-.527a21.86 21.86 0 0 1 6.443-15.558A21.852 21.852 0 0 1-.527-22.528l.001-1.999m-.002 0a23.922 23.922 0 0 0-16.969 7.029c-9.373 9.373-9.372 24.57 0 33.941 4.686 4.687 10.828 7.03 16.97 7.03s12.284-2.344 16.97-7.03c9.373-9.373 9.373-24.568 0-33.941A23.925 23.925 0 0 0-.528-24.527z"/><path d="M32.001 8v2c5.876 0 11.4 2.288 15.556 6.443 8.577 8.578 8.577 22.535 0 31.113A21.86 21.86 0 0 1 32 54a21.86 21.86 0 0 1-15.557-6.444c-8.577-8.578-8.577-22.535 0-31.113A21.865 21.865 0 0 1 32 10l.001-2m-.002 0a23.934 23.934 0 0 0-16.97 7.029c-9.372 9.373-9.372 24.568 0 33.941A23.925 23.925 0 0 0 32 56a23.927 23.927 0 0 0 16.971-7.03c9.372-9.373 9.372-24.568 0-33.941A23.927 23.927 0 0 0 31.999 8z"/></g><path d="M64.527 42.526c5.877 0 11.4 2.289 15.556 6.444 8.578 8.578 8.578 22.535 0 31.113a21.86 21.86 0 0 1-15.556 6.442 21.861 21.861 0 0 1-15.557-6.442c-4.155-4.155-6.443-9.681-6.443-15.558s2.288-11.401 6.443-15.556a21.862 21.862 0 0 1 15.557-6.443m0-2a23.927 23.927 0 0 0-16.971 7.03c-9.373 9.371-9.372 24.568 0 33.941a23.925 23.925 0 0 0 16.971 7.028 23.929 23.929 0 0 0 16.97-7.028c9.373-9.373 9.373-24.568 0-33.941a23.922 23.922 0 0 0-16.97-7.03z"/><g><path d="M-33.053 8v2c5.876 0 11.4 2.288 15.556 6.443 8.577 8.578 8.577 22.535 0 31.113C-21.653 51.711-27.177 54-33.054 54s-11.401-2.289-15.557-6.444c-8.577-8.578-8.577-22.535 0-31.113A21.862 21.862 0 0 1-33.055 10l.002-2m-.001 0a23.932 23.932 0 0 0-16.97 7.029c-9.372 9.373-9.372 24.568 0 33.941C-45.337 53.657-39.195 56-33.053 56s12.284-2.344 16.971-7.03c9.372-9.373 9.372-24.568 0-33.941A23.93 23.93 0 0 0-33.054 8z"/><path d="M-.527 42.526c5.876 0 11.401 2.289 15.556 6.444s6.444 9.68 6.444 15.556a21.861 21.861 0 0 1-6.444 15.558c-4.155 4.154-9.68 6.442-15.556 6.442s-11.401-2.288-15.556-6.442c-8.577-8.578-8.577-22.536 0-31.113A21.854 21.854 0 0 1-.527 42.526m0-2a23.925 23.925 0 0 0-16.97 7.03c-9.373 9.373-9.372 24.568 0 33.941 4.686 4.686 10.828 7.028 16.97 7.028s12.284-2.343 16.97-7.028c9.373-9.373 9.373-24.57 0-33.941a23.925 23.925 0 0 0-16.97-7.03z"/></g><path d="M32 75.054a21.861 21.861 0 0 1 15.557 6.442C51.712 85.651 54 91.177 54 97.054s-2.288 11.401-6.443 15.556A21.86 21.86 0 0 1 32 119.054a21.86 21.86 0 0 1-15.557-6.444C12.289 108.455 10 102.931 10 97.054s2.288-11.402 6.443-15.558A21.863 21.863 0 0 1 32 75.054m0-2a23.931 23.931 0 0 0-16.971 7.028c-9.372 9.373-9.372 24.57 0 33.941A23.924 23.924 0 0 0 32 121.052a23.926 23.926 0 0 0 16.971-7.029c9.372-9.371 9.372-24.568 0-33.941A23.924 23.924 0 0 0 32 73.054z"/></g></svg>