<svg version="1.2" baseProfile="tiny" xmlns="http://www.w3.org/2000/svg" width="48" height="48"><g fill="#D8B28D"><path d="M45.75 2.25v43.5H2.25V2.25h43.5M48 0H0v48h48V0z"/><path d="M24 2.25c11.993 0 21.75 9.757 21.75 21.75S35.993 45.75 24 45.75 2.25 35.993 2.25 24 12.007 2.25 24 2.25M24 0C10.746 0 0 10.745 0 24s10.746 24 24 24c13.255 0 24-10.745 24-24S37.255 0 24 0z"/><path fill-rule="evenodd" d="M25.247 22.112c.067.016.188-.092.222-.134.167-.218.382-.444.561-.65.763-.876 1.749-1.409 2.895-1.605a6.672 6.672 0 0 1 2.928.137c1.477.407 2.569 1.305 3.281 2.659.323.619.538 1.276.674 1.961.13.676.192 1.359.192 2.049V35h-5c-.035 0 .001-.466 0-.5-.004-.055 0-.444 0-.5v-6.838c0-.478-.113-.948-.221-1.413a3.638 3.638 0 0 0-.325-.811c-.402-.777-1.068-1.18-1.934-1.239a2.89 2.89 0 0 0-1.157.133c-.537.183-.97.514-1.31.963-.173.231-1.053 1.89-1.053 2.077V35h-5v-.5c.006-1.299 0-3.5 0-4.072V23.5v-3-.488V20h5v1.92c0 .059.169.175.247.192zM12 20h5v15h-5V20zM17.397 15.144c-.012 1.21-.643 2.117-1.652 2.508a3.349 3.349 0 0 1-2.364.053c-.928-.321-1.508-.972-1.714-1.937A2.62 2.62 0 0 1 11.885 14c.333-.668.879-1.091 1.583-1.314a3.49 3.49 0 0 1 1.462-.132c.305.035.603.103.884.226.834.364 1.335 1.002 1.523 1.886.037.182.046.37.06.478z"/></g></svg>