<svg baseProfile="tiny" xmlns="http://www.w3.org/2000/svg" width="48" height="48"><path fill-rule="evenodd" fill="#D8B28D" d="M37 23.492c0-2.229-.751-4.049-2.059-5.479.211-.514.91-2.59-.202-5.403 0 0-1.711-.548-5.608 2.094-1.63-.453-3.378-.643-5.113-.651-1.734.008-3.481.198-5.109.651-3.9-2.642-5.615-2.094-5.615-2.094-1.108 2.812-.409 4.889-.197 5.403C11.79 19.442 11 21.263 11 23.492c0 7.822 4.759 9.573 9.293 10.088-.584.51-1.003 1.411-1.186 2.729-1.166.522-4.229 1.424-6.051-1.696 0 0-1.08-1.96-3.128-2.104 0 0-1.992-.027-.14 1.24 0 0 1.338.628 2.266 2.987 0 0 1.375 3.644 7.053 2.407.009 1.707 0 3.315 0 3.801 0 .54 0 1.482-2.045 2.163-2.3 3.068 17.13 3.11 14.148.086-1.034.203-2.21-1.704-2.21-2.247v-5.603c0-1.904-.713-3.146-1.444-3.78C32.1 33.059 37 31.333 37 23.492zm-25.663 9.962c-.046.102-.205.132-.35.063-.149-.067-.231-.206-.184-.307.044-.104.204-.133.352-.064.148.066.233.206.182.308zm.827.922c-.097.09-.288.048-.417-.094-.134-.143-.158-.333-.06-.424.1-.09.286-.048.419.094.134.144.16.333.058.424zm.804 1.175c-.124.087-.329.006-.456-.175-.125-.182-.125-.4.003-.487.126-.087.329-.009.456.171.125.185.125.403-.003.491zm1.103 1.137c-.111.123-.35.089-.524-.079-.178-.165-.229-.398-.116-.521.114-.124.354-.089.53.078.175.165.229.399.11.522zm1.521.659c-.049.159-.278.232-.509.164-.231-.07-.382-.257-.336-.418.048-.162.278-.236.512-.164.23.069.382.255.333.418zm1.238.432c-.245.006-.442-.13-.444-.295 0-.17.191-.309.436-.312.242-.006.441.13.441.297.005.169-.191.308-.433.31zm1.607-.197c-.236.044-.456-.058-.486-.22-.03-.168.142-.337.378-.382.241-.041.458.058.488.225.029.163-.139.333-.38.377z"/><g fill="#D8B28D"><path d="M45.75 2.25v43.5H2.25V2.25h43.5M48 0H0v48h48V0z"/><path d="M24 2.25c11.993 0 21.75 9.757 21.75 21.75S35.993 45.75 24 45.75 2.25 35.993 2.25 24 12.007 2.25 24 2.25M24 0C10.745 0 0 10.746 0 24s10.745 24 24 24c13.254 0 24-10.746 24-24S37.254 0 24 0z"/></g></svg>