<svg baseProfile="tiny" xmlns="http://www.w3.org/2000/svg" width="1024" height="1024"><path fill="#332E2A" d="M-1536-768h4096v2560h-4096z"/><path fill="none" stroke="#EFE0D1" stroke-width="48" d="M322.001 563c-70 0-147.045-39.746-159.001-107-16-90 118.727-292.381 177.001-294 72-2 23.699 232.978-3 329S242.553 928.775 168 853c-61-62 240.001-426 296.001-418 30.222 4.317-4.161 68.843 10 80 33 26 76-32 376-350"/><g fill="#EFE0D1"><path d="M839.914 184a.699.699 0 0 1 .086.086v655.828a.699.699 0 0 1-.086.086H184.086a.699.699 0 0 1-.086-.086V184.086a.699.699 0 0 1 .086-.086h655.828m.086-48H184c-26.4 0-48 21.6-48 48v656c0 26.4 21.6 48 48 48h656c26.4 0 48-21.6 48-48V184c0-26.4-21.6-48-48-48z"/><path d="M512 48c62.661 0 123.422 12.262 180.595 36.443 55.247 23.368 104.874 56.831 147.503 99.459 42.628 42.629 76.091 92.256 99.459 147.503C963.738 388.578 976 449.339 976 512s-12.262 123.422-36.443 180.596c-23.368 55.246-56.831 104.873-99.459 147.502-42.629 42.629-92.256 76.092-147.503 99.459C635.422 963.738 574.661 976 512 976s-123.422-12.262-180.595-36.443c-55.247-23.367-104.874-56.83-147.503-99.459-42.628-42.629-76.091-92.256-99.459-147.502C60.262 635.422 48 574.661 48 512s12.262-123.422 36.443-180.595c23.368-55.247 56.831-104.874 99.459-147.503 42.629-42.628 92.256-76.091 147.503-99.459C388.578 60.262 449.339 48 512 48m0-48C229.23 0 0 229.23 0 512c0 282.771 229.23 512 512 512s512-229.229 512-512C1024 229.23 794.77 0 512 0z"/></g></svg>