<svg version="1.2" baseProfile="tiny" xmlns="http://www.w3.org/2000/svg" width="192" height="192"><path fill="none" stroke="#EFE0D1" stroke-width="9" d="M60.375 105.562c-13.125 0-27.57-7.452-29.812-20.062-3-16.875 22.262-54.821 33.188-55.125 13.5-.375 4.443 43.684-.562 61.688s-17.71 82.083-31.689 67.875c-11.438-11.625 45-79.875 55.5-78.375 5.667.81-.78 12.908 1.875 15 6.188 4.875 14.25-6 70.5-65.625"/><g fill="#EFE0D1"><path d="M157.5 34.5v123h-123v-123h123m0-9h-123c-4.95 0-9 4.05-9 9v123c0 4.95 4.05 9 9 9h123c4.95 0 9-4.05 9-9v-123c0-4.95-4.05-9-9-9z"/><path d="M96 9c47.972 0 87 39.028 87 87s-39.028 87-87 87S9 143.972 9 96 48.028 9 96 9m0-9C42.98 0 0 42.98 0 96s42.98 96 96 96 96-42.98 96-96S149.02 0 96 0z"/></g></svg>