<svg xmlns="http://www.w3.org/2000/svg" xml:space="preserve" style="fill-rule:evenodd;clip-rule:evenodd;stroke-linejoin:round;stroke-miterlimit:2" viewBox="0 0 1024 1024" width="40" height="40"><path d="M242.3 482c-10.1-2-17.9-8.5-21-17.3-1.7-4.9-1.8-13.3-1.8-163.7 0-171.3-.3-161.8 5.2-170.2 2.6-3.9 7.7-7.7 13.3-9.8 2.3-.9 10.3-1.5 23.3-1.8l19.7-.4v147.6c0 147.6 0 147.6 2.9 150.8 2.9 3.3 2.9 3.3 118.4 3.6 104.3.2 115.7.1 117.1-1.4 1.4-1.4 1.6-13.1 1.6-118.4 0-104.9-.2-117-1.6-118.4-1.3-1.4-6.6-1.6-42.9-1.6s-41.6.2-42.9 1.6c-1.4 1.4-1.6 7.1-1.6 47.5V276h30.5c30.5 0 30.5 0 30.5 3.3 0 2.9-4 7.3-44.3 47.5-41.4 41.4-44.4 44.2-47.7 44.2-3.3 0-6.3-2.8-47.8-44.3-40.1-40.1-44.2-44.5-44.2-47.5 0-3.2 0-3.2 30.5-3.2h30.4l.3-67.3c.3-67.2.3-67.2 3.6-74 3.6-7.2 8.1-11.1 15.7-13.8 6-2.1 168.1-2.1 174 0 8.8 3.1 14.5 8.8 17.6 17.6 2.1 6 2.1 319 0 325-2.1 5.9-5.8 11-9.9 13.7-8.5 5.6 2 5.3-167.7 5.4-86.3.1-158.9-.2-161.2-.6Z" style="fill-rule:nonzero" transform="matrix(1.76222 0 0 1.75911 -194.803 -16.983)"/></svg>
